<?xml version="1.0" encoding="utf-8"?>
<!-- Generator: Adobe Illustrator 16.0.0, SVG Export Plug-In . SVG Version: 6.00 Build 0)  -->
<!DOCTYPE svg PUBLIC "-//W3C//DTD SVG 1.1//EN" "http://www.w3.org/Graphics/SVG/1.1/DTD/svg11.dtd">
<svg version="1.1" id="Layer_1" xmlns="http://www.w3.org/2000/svg" xmlns:xlink="http://www.w3.org/1999/xlink" x="0px" y="0px"
	 width="201.333px" height="219.833px" viewBox="0 0 201.333 219.833" enable-background="new 0 0 201.333 219.833"
	 xml:space="preserve">
<rect x="9.333" y="69.5" fill="#FFFFFF" width="75" height="135"/>
<rect x="11.068" y="194.742" fill="#231F20" width="71.816" height="14.768"/>
<polyline fill="none" stroke="#08AC4B" stroke-width="2.7121" stroke-miterlimit="10" points="9.267,152.982 35.729,152.982 
	39.463,147.557 43.119,154.606 49.317,116.915 52.257,181.815 54.985,150.119 57.793,153.733 61.609,147.527 63.182,152.727 
	67.965,152.71 70.032,146.142 72.416,151.956 76.338,144.485 79.305,152.53 82.853,152.483 "/>
<path fill="none" stroke="#231F20" stroke-width="5.7451" stroke-miterlimit="10" d="M84.508,205.124
	c0,3.383-2.411,6.127-5.387,6.127H14.829c-2.974,0-5.387-2.744-5.387-6.127V68.794c0-3.384,2.413-6.127,5.387-6.127h64.292
	c2.976,0,5.387,2.744,5.387,6.127V205.124z"/>
<ellipse fill="#FFFFFF" cx="46.975" cy="202.126" rx="3.892" ry="4.427"/>
<rect x="11.068" y="65.177" fill="#231F20" width="71.816" height="10.063"/>
<rect x="30.626" y="68.366" fill="#FFFFFF" width="32.699" height="0.622"/>
<g>
	<g opacity="0.5">
		<image overflow="visible" width="220" height="191" xlink:href="D194F811.png"  transform="matrix(1 0 0 1 16.333 -25.5)">
		</image>
	</g>
	<g>
		<path fill="#457CBE" d="M178.073,5.458c0,0,15.905-0.339,19.626,15.567c0,18.275,0,70.727,0,70.727s-3.383,14.553-18.615,16.246
			c-16.579,0-74.447,0-74.447,0l-36.208,14.89l11.505-14.214c0,0-26.055,1.012-28.425-16.583c0-17.26,0-72.422,0-72.422
			S52.86,5.796,69.78,5.458C86.701,5.118,178.073,5.458,178.073,5.458z"/>
		<path fill="#08AC4B" d="M178.039,2.897c0.753-0.004,1.337,0.04,1.983,0.1c0.629,0.06,1.25,0.146,1.867,0.253
			c1.233,0.214,2.452,0.512,3.649,0.903c2.393,0.778,4.701,1.943,6.763,3.497c0.506,0.401,1.011,0.804,1.482,1.249
			c0.485,0.428,0.928,0.904,1.368,1.378c0.43,0.485,0.847,0.98,1.227,1.505c0.403,0.508,0.731,1.064,1.087,1.602
			c0.313,0.56,0.657,1.108,0.921,1.689c0.292,0.571,0.546,1.154,0.777,1.746c0.257,0.584,0.427,1.189,0.636,1.786
			c0.19,0.6,0.334,1.208,0.504,1.811l0.067,0.24l0.003,0.369l0.25,35.363c0.036,5.894,0.062,11.788,0.037,17.682l-0.099,17.682
			l-0.002,0.368l-0.072,0.281c-0.199,0.771-0.375,1.278-0.597,1.884c-0.216,0.58-0.449,1.145-0.703,1.7
			c-0.505,1.11-1.077,2.186-1.723,3.221c-1.288,2.07-2.875,3.979-4.726,5.625c-0.473,0.4-0.943,0.803-1.446,1.168
			c-0.488,0.383-1.014,0.716-1.532,1.057c-0.531,0.321-1.062,0.643-1.618,0.92c-0.543,0.301-1.118,0.535-1.68,0.793
			c-0.578,0.217-1.146,0.466-1.736,0.64c-0.585,0.194-1.174,0.368-1.771,0.505c-1.188,0.307-2.393,0.475-3.593,0.611l-0.156,0.018
			l-0.125-0.002l-18.612-0.319l-18.612-0.439l-9.306-0.22c-3.102-0.06-6.204-0.188-9.306-0.28l-9.306-0.302l-9.306-0.352l0.24-0.047
			v0L68.668,123.47l-2.283,0.939l1.553-1.919l11.505-14.214l0.515,1.026h-0.001c-1.549,0.243-3.07,0.335-4.618,0.368
			c-1.543,0.033-3.089-0.043-4.642-0.171c-1.549-0.153-3.098-0.396-4.645-0.725c-1.547-0.334-3.075-0.806-4.586-1.389
			c-3.023-1.143-5.938-2.968-8.291-5.539c-2.344-2.584-3.814-6.001-4.307-9.4l-0.023-0.158l-0.001-0.198l-0.166-36.211
			l-0.083-18.105l0.023-18.105v-0.167l0.014-0.114c0.07-0.598,0.142-0.928,0.234-1.364c0.088-0.41,0.194-0.806,0.308-1.199
			c0.229-0.785,0.507-1.549,0.829-2.296c0.639-1.495,1.478-2.912,2.478-4.217c2.013-2.607,4.777-4.646,7.761-5.861
			c2.987-1.246,6.125-1.736,9.162-1.827l8.407-0.042l16.707-0.027l16.722,0.075l66.844,0.269L178.039,2.897z M177.707,8.018
			l-33.051-0.04c-11.139-0.015-22.267-0.018-33.392,0.038l-16.689,0.06L77.87,8.238l-8.297,0.081
			c-2.519,0.082-4.969,0.5-7.128,1.416c-2.166,0.897-4.018,2.292-5.413,4.096c-0.688,0.908-1.28,1.904-1.73,2.972
			c-0.227,0.533-0.424,1.08-0.583,1.632c-0.079,0.275-0.152,0.553-0.209,0.823c-0.056,0.244-0.114,0.598-0.125,0.692l0.013-0.281
			l0.023,18.105l-0.083,18.105L54.172,92.09l-0.024-0.356c0.153,1.272,0.448,2.503,0.923,3.656c0.467,1.158,1.128,2.22,1.906,3.219
			c1.559,2.012,3.778,3.589,6.23,4.88c1.229,0.647,2.543,1.17,3.881,1.671c1.341,0.495,2.728,0.91,4.138,1.27
			c1.408,0.382,2.845,0.677,4.296,0.95c1.447,0.267,2.931,0.492,4.385,0.663h0.001l1.384-0.048l-0.87,1.075l-11.505,14.214
			l-0.73-0.979l36.208-14.89h0l0.091-0.042l0.149-0.005l9.306-0.352l9.306-0.302c3.102-0.092,6.204-0.221,9.306-0.28l9.306-0.22
			l18.612-0.439l18.612-0.319l-0.281,0.016c0.971-0.147,1.934-0.316,2.863-0.58c0.469-0.119,0.927-0.267,1.378-0.429
			c0.459-0.144,0.889-0.354,1.333-0.527c0.425-0.214,0.865-0.398,1.273-0.643c0.421-0.22,0.819-0.479,1.22-0.732
			c0.388-0.273,0.786-0.532,1.151-0.837c0.378-0.287,0.73-0.608,1.088-0.922c1.39-1.303,2.601-2.821,3.586-4.496
			c0.493-0.836,0.931-1.709,1.311-2.603c0.191-0.446,0.365-0.898,0.52-1.349c0.147-0.424,0.314-0.959,0.382-1.25l-0.074,0.648
			l-0.099-17.682c-0.024-5.894,0.001-11.788,0.037-17.682l0.25-35.363l0.07,0.609c-0.13-0.485-0.243-0.98-0.39-1.458
			c-0.165-0.469-0.291-0.958-0.49-1.41c-0.176-0.463-0.368-0.917-0.589-1.354c-0.196-0.453-0.459-0.861-0.688-1.292
			c-0.268-0.403-0.505-0.83-0.806-1.208c-0.278-0.396-0.588-0.765-0.903-1.129c-0.326-0.354-0.648-0.714-1.01-1.034
			c-0.347-0.336-0.725-0.638-1.1-0.944c-1.54-1.178-3.306-2.101-5.205-2.737c-0.949-0.318-1.929-0.567-2.919-0.748
			c-0.495-0.091-0.994-0.164-1.488-0.215c-0.479-0.051-1.023-0.088-1.399-0.088H177.707z"/>
	</g>
	<g>
		<path fill="#FFFFFF" d="M68.786,36.784c-2.518-0.723-4.351-1.613-5.497-2.668c-1.147-1.054-1.72-2.356-1.72-3.905
			c0-1.753,0.701-3.204,2.103-4.351c1.401-1.146,3.223-1.72,5.466-1.72c1.529,0,2.893,0.295,4.09,0.886
			c1.197,0.592,2.125,1.407,2.783,2.447c0.656,1.04,0.986,2.177,0.986,3.409h-2.951c0-1.35-0.428-2.411-1.284-3.183
			c-0.856-0.773-2.065-1.158-3.624-1.158c-1.447,0-2.576,0.318-3.386,0.957c-0.811,0.638-1.216,1.524-1.216,2.657
			c0,0.909,0.385,1.678,1.155,2.306c0.769,0.628,2.079,1.202,3.929,1.723c1.851,0.521,3.297,1.095,4.343,1.722
			c1.044,0.627,1.819,1.358,2.324,2.194c0.505,0.836,0.757,1.82,0.757,2.952c0,1.804-0.704,3.249-2.11,4.334
			c-1.407,1.085-3.288,1.628-5.642,1.628c-1.529,0-2.956-0.292-4.281-0.878c-1.325-0.586-2.347-1.389-3.065-2.408
			c-0.719-1.02-1.078-2.176-1.078-3.471h2.951c0,1.346,0.497,2.409,1.49,3.188c0.995,0.78,2.322,1.17,3.983,1.17
			c1.549,0,2.737-0.316,3.562-0.948c0.826-0.632,1.239-1.494,1.239-2.584c0-1.09-0.382-1.934-1.147-2.53
			C72.181,37.953,70.794,37.365,68.786,36.784z"/>
		<path fill="#FFFFFF" d="M87.225,47.012c-2.242,0-4.067-0.735-5.474-2.209c-1.406-1.473-2.11-3.442-2.11-5.909v-0.52
			c0-1.642,0.314-3.106,0.941-4.396c0.626-1.29,1.502-2.299,2.629-3.028c1.126-0.728,2.346-1.093,3.662-1.093
			c2.15,0,3.822,0.709,5.015,2.125c1.192,1.417,1.789,3.446,1.789,6.086v1.177H82.47c0.041,1.631,0.518,2.948,1.429,3.953
			c0.913,1.004,2.072,1.506,3.479,1.506c1,0,1.845-0.204,2.538-0.612c0.693-0.407,1.3-0.948,1.819-1.621l1.729,1.345
			C92.077,45.947,89.998,47.012,87.225,47.012z M86.873,32.182c-1.141,0-2.1,0.416-2.875,1.247
			c-0.775,0.831-1.253,1.995-1.437,3.493h8.286v-0.214c-0.081-1.438-0.468-2.55-1.161-3.341
			C88.993,32.577,88.055,32.182,86.873,32.182z"/>
		<path fill="#FFFFFF" d="M96.276,38.298c0-2.579,0.596-4.63,1.789-6.154c1.193-1.524,2.772-2.286,4.74-2.286
			c2.018,0,3.592,0.714,4.724,2.141l0.138-1.834h2.584V46.31c0,2.141-0.635,3.827-1.903,5.06c-1.269,1.234-2.974,1.851-5.115,1.851
			c-1.192,0-2.359-0.255-3.5-0.765c-1.142-0.51-2.014-1.208-2.615-2.094l1.468-1.698c1.212,1.499,2.696,2.248,4.449,2.248
			c1.375,0,2.448-0.388,3.218-1.162c0.77-0.775,1.155-1.865,1.155-3.272v-1.422c-1.131,1.306-2.676,1.957-4.633,1.957
			c-1.937,0-3.504-0.779-4.701-2.339C96.875,43.114,96.276,40.989,96.276,38.298z M99.12,38.619c0,1.866,0.382,3.331,1.146,4.396
			c0.764,1.065,1.834,1.598,3.211,1.598c1.784,0,3.094-0.811,3.93-2.432v-7.553c-0.867-1.58-2.167-2.37-3.899-2.37
			c-1.377,0-2.452,0.535-3.226,1.605C99.507,34.934,99.12,36.519,99.12,38.619z"/>
		<path fill="#FFFFFF" d="M124.73,45.071c-1.101,1.294-2.716,1.941-4.847,1.941c-1.764,0-3.106-0.512-4.028-1.536
			c-0.924-1.024-1.39-2.54-1.399-4.549V30.164h2.829v10.687c0,2.507,1.019,3.761,3.058,3.761c2.161,0,3.598-0.806,4.312-2.416
			V30.164h2.829v16.543h-2.691L124.73,45.071z"/>
		<path fill="#FFFFFF" d="M131.794,25.775c0-0.458,0.14-0.846,0.42-1.162c0.28-0.315,0.696-0.474,1.246-0.474
			s0.969,0.158,1.254,0.474c0.285,0.316,0.428,0.704,0.428,1.162c0,0.459-0.143,0.841-0.428,1.147
			c-0.285,0.306-0.704,0.458-1.254,0.458s-0.966-0.153-1.246-0.458C131.935,26.616,131.794,26.234,131.794,25.775z M134.852,46.707
			h-2.828V30.164h2.828V46.707z"/>
	</g>
	<g>
		<path fill="#FFFFFF" d="M73.323,73.142c-4.155-1.195-7.179-2.662-9.071-4.403c-1.893-1.742-2.838-3.89-2.838-6.448
			c0-2.893,1.156-5.286,3.47-7.178c2.313-1.893,5.32-2.839,9.02-2.839c2.524,0,4.774,0.489,6.75,1.464
			c1.976,0.977,3.507,2.321,4.592,4.038c1.085,1.716,1.627,3.592,1.627,5.627h-4.87c0-2.228-0.707-3.98-2.12-5.254
			c-1.412-1.274-3.406-1.912-5.98-1.912c-2.388,0-4.251,0.526-5.589,1.58c-1.337,1.054-2.006,2.515-2.006,4.385
			c0,1.501,0.635,2.77,1.906,3.805c1.27,1.036,3.431,1.984,6.484,2.844c3.053,0.86,5.442,1.807,7.167,2.841
			c1.724,1.034,3.002,2.242,3.835,3.621c0.832,1.38,1.249,3.002,1.249,4.87c0,2.978-1.161,5.362-3.481,7.154
			c-2.322,1.791-5.426,2.687-9.311,2.687c-2.523,0-4.879-0.484-7.065-1.451c-2.187-0.967-3.873-2.292-5.06-3.974
			c-1.186-1.682-1.778-3.591-1.778-5.728h4.87c0,2.22,0.82,3.974,2.461,5.261c1.639,1.288,3.831,1.931,6.573,1.931
			c2.556,0,4.516-0.521,5.879-1.565c1.363-1.043,2.044-2.464,2.044-4.264c0-1.8-0.63-3.192-1.893-4.176
			C78.925,75.072,76.637,74.101,73.323,73.142z"/>
		<path fill="#FFFFFF" d="M109.281,89.517c-0.27-0.538-0.488-1.496-0.656-2.876c-2.17,2.254-4.761,3.381-7.772,3.381
			c-2.692,0-4.9-0.761-6.624-2.284c-1.725-1.522-2.586-3.452-2.586-5.791c0-2.842,1.081-5.05,3.242-6.624
			c2.161-1.572,5.202-2.359,9.122-2.359h4.542V70.82c0-1.632-0.488-2.932-1.464-3.898c-0.976-0.968-2.414-1.452-4.315-1.452
			c-1.665,0-3.062,0.421-4.188,1.262c-1.128,0.841-1.691,1.859-1.691,3.053h-4.693c0-1.362,0.483-2.678,1.451-3.949
			c0.967-1.271,2.279-2.275,3.937-3.015c1.656-0.74,3.477-1.111,5.462-1.111c3.146,0,5.61,0.787,7.394,2.359
			c1.782,1.574,2.708,3.739,2.775,6.498v12.566c0,2.507,0.319,4.5,0.959,5.981v0.403H109.281z M101.534,85.96
			c1.464,0,2.851-0.379,4.163-1.136c1.312-0.756,2.262-1.741,2.852-2.952V76.27h-3.659c-5.721,0-8.58,1.674-8.58,5.021
			c0,1.464,0.487,2.608,1.463,3.432C98.75,85.547,100.003,85.96,101.534,85.96z"/>
		<path fill="#FFFFFF" d="M125.605,89.517h-4.668V50.76h4.668V89.517z"/>
		<path fill="#FFFFFF" d="M149.931,86.817c-1.817,2.137-4.484,3.205-8,3.205c-2.91,0-5.126-0.845-6.649-2.535
			c-1.522-1.692-2.292-4.194-2.308-7.507V62.216h4.667v17.637c0,4.139,1.682,6.208,5.047,6.208c3.566,0,5.938-1.329,7.116-3.987
			V62.216h4.668v27.301h-4.441L149.931,86.817z"/>
		<path fill="#FFFFFF" d="M160.427,75.639c0-4.188,0.992-7.557,2.977-10.105c1.985-2.549,4.584-3.823,7.798-3.823
			c3.196,0,5.728,1.094,7.595,3.28V50.76h4.668v38.757h-4.29l-0.227-2.927c-1.868,2.288-4.466,3.432-7.797,3.432
			c-3.163,0-5.74-1.295-7.734-3.886c-1.994-2.59-2.99-5.971-2.99-10.143V75.639z M165.096,76.169c0,3.096,0.639,5.519,1.918,7.268
			c1.277,1.75,3.044,2.625,5.298,2.625c2.961,0,5.123-1.329,6.485-3.987V69.533c-1.396-2.574-3.542-3.861-6.435-3.861
			c-2.287,0-4.071,0.884-5.349,2.649C165.735,70.088,165.096,72.704,165.096,76.169z"/>
	</g>
</g>
</svg>
