<?xml version="1.0" encoding="utf-8"?>
<!-- Generator: Adobe Illustrator 16.0.0, SVG Export Plug-In . SVG Version: 6.00 Build 0)  -->
<!DOCTYPE svg PUBLIC "-//W3C//DTD SVG 1.1//EN" "http://www.w3.org/Graphics/SVG/1.1/DTD/svg11.dtd">
<svg version="1.1" id="Layer_1" xmlns="http://www.w3.org/2000/svg" xmlns:xlink="http://www.w3.org/1999/xlink" x="0px" y="0px"
	 width="98.667px" height="58.667px" viewBox="0 0 98.667 58.667" enable-background="new 0 0 98.667 58.667" xml:space="preserve">
<g>
	<path fill="#457CBE" stroke="#08AC4B" stroke-width="0.306" stroke-miterlimit="10" d="M12,14.906
		c-1.773-0.51-3.065-1.136-3.873-1.88c-0.808-0.743-1.212-1.661-1.212-2.752c0-1.235,0.493-2.257,1.481-3.065
		c0.987-0.808,2.271-1.212,3.851-1.212c1.078,0,2.038,0.208,2.882,0.625c0.844,0.417,1.497,0.991,1.96,1.724
		c0.463,0.732,0.695,1.533,0.695,2.402h-2.079c0-0.952-0.302-1.699-0.905-2.243c-0.603-0.544-1.454-0.817-2.553-0.817
		c-1.02,0-1.815,0.226-2.386,0.675c-0.571,0.45-0.856,1.073-0.856,1.872c0,0.64,0.271,1.182,0.814,1.625
		c0.542,0.442,1.465,0.847,2.769,1.214c1.303,0.367,2.323,0.771,3.06,1.213c0.736,0.442,1.282,0.958,1.638,1.546
		c0.355,0.589,0.533,1.282,0.533,2.079c0,1.271-0.496,2.29-1.486,3.054c-0.991,0.765-2.317,1.148-3.976,1.148
		c-1.077,0-2.083-0.207-3.016-0.62c-0.934-0.413-1.654-0.979-2.16-1.697c-0.506-0.718-0.76-1.534-0.76-2.446H8.5
		c0,0.948,0.35,1.697,1.05,2.247s1.635,0.824,2.806,0.824c1.092,0,1.929-0.222,2.51-0.668c0.582-0.445,0.873-1.052,0.873-1.82
		s-0.269-1.363-0.808-1.783C14.392,15.73,13.416,15.315,12,14.906z"/>
	<path fill="#457CBE" stroke="#08AC4B" stroke-width="0.306" stroke-miterlimit="10" d="M24.993,22.114
		c-1.581,0-2.866-0.52-3.857-1.557c-0.991-1.038-1.487-2.426-1.487-4.164v-0.366c0-1.156,0.221-2.189,0.663-3.098
		c0.441-0.908,1.059-1.619,1.853-2.133c0.793-0.514,1.654-0.771,2.58-0.771c1.516,0,2.693,0.5,3.534,1.498
		c0.84,0.999,1.26,2.428,1.26,4.288v0.83h-7.896c0.029,1.149,0.364,2.078,1.007,2.785c0.643,0.707,1.46,1.061,2.451,1.061
		c0.704,0,1.299-0.144,1.789-0.431c0.488-0.287,0.916-0.668,1.282-1.142l1.217,0.948C28.412,21.363,26.947,22.114,24.993,22.114z
		 M24.745,11.664c-0.804,0-1.48,0.292-2.025,0.878c-0.546,0.586-0.884,1.406-1.013,2.462h5.839v-0.151
		c-0.058-1.013-0.33-1.797-0.818-2.354C26.239,11.942,25.578,11.664,24.745,11.664z"/>
	<path fill="#457CBE" stroke="#08AC4B" stroke-width="0.306" stroke-miterlimit="10" d="M31.371,15.973
		c0-1.817,0.42-3.263,1.26-4.336c0.84-1.074,1.954-1.611,3.34-1.611c1.422,0,2.531,0.503,3.328,1.509l0.098-1.293h1.82v11.376
		c0,1.509-0.447,2.697-1.341,3.566c-0.895,0.869-2.096,1.303-3.604,1.303c-0.84,0-1.663-0.18-2.467-0.539
		c-0.804-0.359-1.418-0.851-1.841-1.476l1.034-1.195c0.854,1.055,1.899,1.583,3.135,1.583c0.969,0,1.725-0.273,2.267-0.819
		c0.543-0.546,0.813-1.314,0.813-2.306v-1.002c-0.797,0.92-1.885,1.379-3.264,1.379c-1.365,0-2.469-0.55-3.313-1.648
		C31.792,19.366,31.371,17.869,31.371,15.973z M33.375,16.199c0,1.315,0.269,2.347,0.808,3.097c0.539,0.751,1.292,1.126,2.263,1.126
		c1.256,0,2.179-0.571,2.768-1.713v-5.322c-0.61-1.113-1.525-1.67-2.747-1.67c-0.97,0-1.728,0.377-2.273,1.131
		C33.647,13.603,33.375,14.72,33.375,16.199z"/>
	<path fill="#457CBE" stroke="#08AC4B" stroke-width="0.306" stroke-miterlimit="10" d="M51.419,20.746
		c-0.775,0.912-1.914,1.368-3.416,1.368c-1.242,0-2.189-0.361-2.838-1.083s-0.979-1.79-0.985-3.205v-7.584h1.993v7.531
		c0,1.767,0.718,2.65,2.155,2.65c1.521,0,2.535-0.567,3.037-1.702v-8.479h1.994v11.657h-1.896L51.419,20.746z"/>
	<path fill="#457CBE" stroke="#08AC4B" stroke-width="0.306" stroke-miterlimit="10" d="M58.574,5.361h2.412l-2.889,3.167
		l-1.604-0.006L58.574,5.361z M58.55,21.898h-2.004V10.241h2.004V21.898z"/>
</g>
<g>
	<path fill="#457CBE" stroke="#08AC4B" stroke-width="0.306" stroke-miterlimit="10" d="M15.197,40.523
		c-2.928-0.84-5.059-1.875-6.392-3.102c-1.333-1.227-2-2.74-2-4.543c0-2.037,0.815-3.725,2.445-5.058s3.749-2,6.356-2
		c1.778,0,3.362,0.344,4.755,1.031c1.393,0.688,2.472,1.636,3.236,2.845c0.765,1.209,1.146,2.529,1.146,3.965h-3.431
		c0-1.57-0.498-2.805-1.494-3.703s-2.4-1.347-4.213-1.347c-1.684,0-2.996,0.372-3.938,1.114c-0.942,0.74-1.414,1.771-1.414,3.09
		c0,1.057,0.447,1.949,1.343,2.68c0.895,0.73,2.417,1.398,4.569,2.004c2.152,0.605,3.834,1.273,5.049,2.002s2.116,1.58,2.703,2.551
		c0.587,0.973,0.88,2.117,0.88,3.432c0,2.098-0.818,3.779-2.454,5.041c-1.635,1.262-3.822,1.893-6.56,1.893
		c-1.778,0-3.438-0.34-4.978-1.021c-1.542-0.682-2.729-1.615-3.565-2.801c-0.836-1.186-1.253-2.529-1.253-4.035h3.431
		c0,1.564,0.578,2.801,1.733,3.707s2.7,1.359,4.632,1.359c1.801,0,3.183-0.367,4.143-1.102c0.96-0.736,1.44-1.736,1.44-3.006
		c0-1.268-0.445-2.248-1.334-2.941C19.145,41.884,17.532,41.201,15.197,40.523z"/>
	<path fill="#457CBE" stroke="#08AC4B" stroke-width="0.306" stroke-miterlimit="10" d="M40.532,52.062
		c-0.189-0.379-0.344-1.055-0.462-2.027c-1.528,1.59-3.354,2.383-5.476,2.383c-1.896,0-3.452-0.535-4.667-1.607
		c-1.215-1.074-1.822-2.434-1.822-4.082c0-2.002,0.762-3.559,2.285-4.666s3.665-1.662,6.427-1.662h3.2v-1.512
		c0-1.148-0.344-2.066-1.03-2.748c-0.688-0.68-1.701-1.021-3.041-1.021c-1.174,0-2.157,0.297-2.951,0.889
		c-0.794,0.594-1.192,1.311-1.192,2.152h-3.307c0-0.961,0.341-1.887,1.022-2.783c0.682-0.895,1.606-1.604,2.773-2.125
		s2.451-0.781,3.849-0.781c2.216,0,3.953,0.555,5.209,1.662c1.257,1.109,1.908,2.635,1.956,4.578v8.854
		c0,1.768,0.225,3.17,0.675,4.213v0.285H40.532z M35.074,49.556c1.031,0,2.009-0.268,2.934-0.801s1.595-1.227,2.009-2.08v-3.947
		h-2.577c-4.031,0-6.045,1.18-6.045,3.539c0,1.031,0.344,1.836,1.031,2.418C33.113,49.265,33.996,49.556,35.074,49.556z"/>
	<path fill="#457CBE" stroke="#08AC4B" stroke-width="0.306" stroke-miterlimit="10" d="M52.037,52.062h-3.291V24.754h3.291V52.062z
		"/>
	<path fill="#457CBE" stroke="#08AC4B" stroke-width="0.306" stroke-miterlimit="10" d="M69.175,50.16
		c-1.281,1.506-3.16,2.258-5.637,2.258c-2.051,0-3.611-0.596-4.686-1.785c-1.072-1.191-1.613-2.955-1.625-5.291V32.826h3.287v12.428
		c0,2.916,1.186,4.373,3.559,4.373c2.512,0,4.182-0.936,5.012-2.809V32.826h3.289v19.236h-3.129L69.175,50.16z"/>
	<path fill="#457CBE" stroke="#08AC4B" stroke-width="0.306" stroke-miterlimit="10" d="M76.57,42.285
		c0-2.951,0.699-5.326,2.098-7.121c1.4-1.795,3.23-2.693,5.494-2.693c2.252,0,4.037,0.77,5.352,2.311V24.754h3.289v27.308h-3.021
		L89.621,50c-1.314,1.613-3.146,2.418-5.494,2.418c-2.229,0-4.045-0.912-5.449-2.738c-1.404-1.824-2.107-4.207-2.107-7.146V42.285z
		 M79.861,42.658c0,2.18,0.449,3.887,1.35,5.119c0.902,1.234,2.146,1.85,3.734,1.85c2.086,0,3.609-0.936,4.568-2.809V37.98
		c-0.982-1.813-2.494-2.719-4.533-2.719c-1.611,0-2.867,0.623-3.77,1.867C80.31,38.373,79.861,40.216,79.861,42.658z"/>
</g>
</svg>
